<?xml version="1.0" encoding="UTF-8"?><svg id="a" xmlns="http://www.w3.org/2000/svg" width="325.85" height="509.19" viewBox="0 0 325.85 509.19"><g id="b"><g id="c"><path d="m259.6,355.5c1.37-9.49,4.32-18.56,8.85-27.19,4.54-13.95,12.29-26.02,23.26-36.21.72-.77,1.45-1.53,2.18-2.27-5.04-8.2-10.9-15.89-17.42-23-29.28-31.94-52.37-38.32-72.22-42.47h-95.44c-2.23.47-4.5.96-6.82,1.52l.59-1.46c-19.85,4.15-42.94,10.54-72.22,42.48h0c-10.63,12.83-16.1,29.19-15.22,45.82.92,17.46,6.12,33.35,19.6,46.24,7.3,6.98,15.98,12,25.28,14.96,1.51,26.26,4.91,53.29,9.89,80.99,3.02,15.65,8.22,28.25,15.61,37.84,10.65,13.85,30.58,13.24,39.79-1.8,2.72-4.45,4.85-9.77,6.5-15.72,1.73-6.27,2.69-12.75,3.18-19.27,1-13.35,1.27-26.25,1.02-38.83,13.69,3.96,27.38,3.96,41.06,0-.26,12.58.01,25.49,1.02,38.83.49,6.52,1.44,13.01,3.18,19.27,1.66,5.95,3.79,11.27,6.5,15.72,9.21,15.04,29.14,15.65,39.79,1.8,7.38-9.58,12.58-22.19,15.61-37.84,7.23-40.17,11.12-78.96,10.76-115.98,2.28,5.12,4.21,10.63,5.68,16.57Z" fill="#323232" stroke-width="0"/><path id="d" d="m63.52,320.66c9.73,2.17,21.09,2.64,34.51.96,3.01-.33,6.05-.38,9.08-.14.02,0,.04,0,.05,0,19.52,1.57,29.26,24.02,17.25,39.79-.87,1.14-1.47,1.77-2.39,2.56-3.12,2.66-8.88,5.87-12.72,7.22-2.84,1-5.66,1.95-8.47,2.83-23.13,7.31-48.56,1.82-66.09-14.94-13.48-12.88-18.67-28.78-19.59-46.24-.88-16.64,4.6-32.99,15.22-45.82h0c29.28-31.93,52.36-38.32,72.22-42.48" fill="#323232" stroke-width="0"/><path d="m251.52,393.32c-.54,5.93-1.16,11.89-1.88,17.89-13.86-6.55-30.92-6.77-49.3-4.37,2.49-1.51,4.98-3.16,7.47-4.94,18.78,2.18,38.95,2.95,43.71-8.57Z" fill="#fff" stroke-width="0"/><path d="m61.38,393.32c.54,5.93,1.16,11.89,1.88,17.89,13.86-6.55,30.92-6.77,49.3-4.37-2.49-1.51-4.98-3.16-7.47-4.94-18.78,2.18-38.95,2.95-43.71-8.57Z" fill="#fff" stroke-width="0"/><path d="m252.81,379.74s.08-.02.11-.03c-.26,3.93-.57,7.87-.92,11.83-1.98,7.84-10.08,10.82-20.42,11.5-.81.06-1.63.1-2.46.12-.13,0-.27,0-.4,0-.16,0-.32,0-.48,0-.55.01-1.1.02-1.66.02h-.21c-.31,0-.61,0-.92,0-.21,0-.42,0-.64,0-.55,0-1.1-.02-1.65-.04-.18,0-.35,0-.53-.01-.37,0-.75-.02-1.13-.04-.29,0-.58-.02-.88-.04-.33-.01-.65-.03-.98-.05-.14,0-.28,0-.42-.02-.7-.04-1.42-.09-2.13-.14-.34-.02-.69-.05-1.03-.08-.1,0-.19,0-.29-.02-2.67-.21-5.36-.48-8.02-.79-.03,0-.05,0-.08,0-10.12,7.22-20.24,12.3-30.36,15.21h0c-2.57.73-5.13,1.34-7.7,1.8-.43.08-.86.15-1.28.22-.38.06-.76.12-1.14.17-.06.01-.12.02-.18.03-.42.06-.83.11-1.25.17-.39.05-.79.1-1.19.14-.11,0-.23.02-.35.03-.75.08-1.49.15-2.24.2-.02,0-.05,0-.07,0-.24.02-.48.03-.72.05-.31.02-.62.04-.93.05-.15,0-.3.01-.46.02-.42.02-.83.03-1.26.04-.05,0-.11,0-.17,0h-.11c-.44.01-.87.01-1.31.02h-1c-.44,0-.88,0-1.31-.02h-.11c-.06,0-.12,0-.17,0-.42,0-.84-.02-1.26-.04-.15,0-.31-.01-.46-.02-.31-.01-.62-.03-.93-.05-.24-.01-.48-.03-.72-.05-.02,0-.05,0-.07,0-.75-.05-1.49-.12-2.24-.2-.12,0-.24-.02-.35-.03-.4-.04-.8-.09-1.19-.14-.42-.05-.83-.11-1.25-.17-.06,0-.12-.01-.18-.03-.38-.05-.76-.11-1.14-.17-.43-.07-.86-.14-1.28-.22-2.57-.46-5.13-1.07-7.7-1.81h0c-10.12-2.9-20.25-7.98-30.36-15.2-.03,0-.05,0-.08,0-2.63.3-5.28.57-7.92.79-.17.02-.33.03-.49.04-.31.02-.62.05-.93.07-.71.05-1.43.1-2.14.14-.15.01-.31.02-.46.03-.31.02-.62.03-.93.05-.29.02-.59.03-.88.04-.8.04-1.58.06-2.35.08-.04,0-.09,0-.12,0-.17,0-.34,0-.5,0h-.01c-.11,0-.22,0-.33,0h-.05c-.19,0-.37,0-.56,0-.31,0-.61,0-.92,0h-.21c-.56,0-1.11,0-1.66-.02-.16,0-.32,0-.48,0-.14,0-.28,0-.42,0-.82-.02-1.64-.07-2.44-.12-10.34-.68-18.45-3.66-20.42-11.5-.35-3.96-.66-7.9-.92-11.83.04.01.08.02.11.03-.13-1.98-.26-3.95-.37-5.92,13.12,4.24,27.51,4.37,41.11.08,2.81-.89,5.63-1.83,8.47-2.84,3.85-1.35,9.6-4.56,12.72-7.22.92-.79,1.51-1.42,2.39-2.56,12.01-15.77,2.27-38.22-17.25-39.79-.01,0-.04,0-.05,0-3.03-.24-6.07-.2-9.08.14-11.62,1.45-21.7,1.29-30.51-.18-2.13-.35-4.08-1.26-5.69-2.55,3.09-1.3,7.15-2.57,11.73-3.81,2.62-.6,5.23-1.17,7.84-1.71.48-.1.96-.2,1.44-.3,16.4-3.38,32.81-5.62,49.24-6.73.28-.02.57-.03.85-.05.76-.05,1.52-.1,2.29-.14,1.05-.06,2.1-.12,3.15-.17,0,0,.01,0,.02,0h0c1.84-.09,3.69-.17,5.54-.23.33-.01.65-.03.97-.04,1.18-.04,2.36-.07,3.54-.1,2.67-.06,5.33-.09,7.99-.09h.09c.75,0,1.51,0,2.26,0,26.77.19,53.58,3.39,80.43,9.55,2.94,3.6,5.73,7.46,8.31,11.61,2.38,3.82,4.57,7.89,6.51,12.24.12,13.38-.3,26.99-1.24,40.82Z" fill="#fff" stroke-width="0"/><g id="e"><path d="m246.35,240.69c-59.88,30.03-119.76,30.03-179.64,0,15.81-10.21,29.6-13.71,42.1-16.33h95.44c12.5,2.62,26.29,6.12,42.1,16.33Z" opacity=".4" stroke-width="0"/><path d="m207.5,398.46c-37.62,11.82-59.74,11.49-102.26-.2-.52-.14-.87.54-.44.86,33.65,25.56,68.02,26.18,103.14.2.44-.33.08-1.02-.45-.86Z" opacity=".3" stroke-width="0"/><path d="m211.26,480.16c-8.18-.32-16.94-4.93-20.97-12.75-3.82-7.43-4.6-15.34-4.6-30.69,0-3.94.56-7.23,3.62-9.31,9.54-6.47,15.53-15.39,20.93-25.58-23.02,13.48-33.76,15.16-33.76,15.16l.52,17.08s0,0,0,0c.36,35.97,6.16,63.12,25.75,68,15.11,3.24,27.17-6,35.68-29.76-6.17,4.81-14.01,8.36-27.18,7.84Z" opacity=".4" stroke-width="0"/><path d="m101.81,480.16c8.18-.32,16.94-4.93,20.97-12.75,3.82-7.43,4.6-15.34,4.6-30.69,0-3.94-.56-7.23-3.62-9.31-9.54-6.47-15.53-15.39-20.93-25.58,23.02,13.48,33.76,15.16,33.76,15.16l-.52,17.08s0,0,0,0c-.36,35.97-6.16,63.12-25.75,68-15.11,3.24-27.17-6-35.68-29.76,6.17,4.81,14.01,8.36,27.18,7.84Z" opacity=".4" stroke-width="0"/><path d="m246.59,413.75c3.35-40.24-.24-79.28-11.26-98.92,7.77,6.38,14.42,15.04,19.64,26.59,1.57.16-6.82,72.49-8.38,72.33Z" opacity=".3" stroke-width="0"/><path id="f" d="m27.1,350.15c2.19,3.07,4.72,6,7.65,8.8,17.53,16.76,42.97,22.25,66.1,14.94,2.81-.89,5.63-1.84,8.46-2.83,3.85-1.35,9.6-4.57,12.72-7.22.92-.79,1.51-1.42,2.39-2.56,2.05-2.69,3.47-5.58,4.3-8.52-38.15,16.19-72.91,18.88-101.62-2.6Z" opacity=".4" stroke-width="0"/></g><g id="g"><path d="m259.6,355.5c1.37-9.49,4.32-18.56,8.85-27.19,4.54-13.95,12.29-26.02,23.26-36.21.72-.77,1.45-1.53,2.18-2.27-5.04-8.2-10.9-15.89-17.42-23-29.28-31.94-52.37-38.32-72.22-42.47h-95.44c-2.23.47-4.5.96-6.82,1.52l.59-1.46c-19.85,4.15-42.94,10.54-72.22,42.48h0c-10.63,12.83-16.1,29.19-15.22,45.82.92,17.46,6.12,33.35,19.6,46.24,7.3,6.98,15.98,12,25.28,14.96,1.51,26.26,4.91,53.29,9.89,80.99,3.02,15.65,8.22,28.25,15.61,37.84,10.65,13.85,30.58,13.24,39.79-1.8,2.72-4.45,4.85-9.77,6.5-15.72,1.73-6.27,2.69-12.75,3.18-19.27,1-13.35,1.27-26.25,1.02-38.83,13.69,3.96,27.38,3.96,41.06,0-.26,12.58.01,25.49,1.02,38.83.49,6.52,1.44,13.01,3.18,19.27,1.66,5.95,3.79,11.27,6.5,15.72,9.21,15.04,29.14,15.65,39.79,1.8,7.38-9.58,12.58-22.19,15.61-37.84,7.23-40.17,11.12-78.96,10.76-115.98,2.28,5.12,4.21,10.63,5.68,16.57Z" fill="none" stroke="#000" stroke-linecap="round" stroke-linejoin="round" stroke-width="13"/><path d="m292.68,287.87c-9.82-15.43-22.65-29.31-37.05-40.57-10.38-8.12-21.93-14.56-34.49-18.63-5.53-1.79-11.2-3.13-16.89-4.32" fill="none" stroke="#000" stroke-linecap="round" stroke-linejoin="round" stroke-width="13"/><path d="m238.13,313.91c9.52,10.76,16.22,23.7,20.46,37.79" fill="none" stroke="#000" stroke-linecap="round" stroke-linejoin="round" stroke-width="13"/><path d="m57.58,311.98s.02.08.02.11c1.07,4.84,5.03,8.53,9.92,9.35,8.81,1.48,18.89,1.63,30.51.18,3.01-.33,6.05-.38,9.08-.14.02,0,.04,0,.05,0,19.52,1.57,29.26,24.02,17.25,39.79-.87,1.14-1.47,1.77-2.39,2.56-3.12,2.66-8.88,5.87-12.72,7.22-2.84,1-5.66,1.95-8.47,2.83-23.13,7.31-48.56,1.82-66.09-14.94-13.48-12.88-18.67-28.78-19.59-46.24-.88-16.64,4.6-32.99,15.22-45.82h0c29.28-31.93,52.36-38.32,72.22-42.48" fill="none" stroke="#000" stroke-linecap="round" stroke-linejoin="round" stroke-width="13"/><path d="m104.36,400.99c34.78,25.46,69.56,25.46,104.34,0" fill="none" stroke="#000" stroke-linecap="round" stroke-linejoin="round" stroke-width="13"/><path d="m123.71,336.58c-6.02,2.33-11.48,4.07-19.81,3.51" fill="none" stroke="#000" stroke-linecap="round" stroke-linejoin="round" stroke-width="10"/><path d="m126.57,350.89c-6.88,3.57-13.27,4.92-19.94,4.68" fill="none" stroke="#000" stroke-linecap="round" stroke-linejoin="round" stroke-width="10"/></g></g><g id="h"><g id="i"><path d="m72.47,37.66c12.53,16.06,15.3,46.08-.77,58.61-16.06,12.53-44.88,2.82-57.41-13.25C1.77,66.95,4.64,43.78,20.7,31.25c16.06-12.53,39.24-9.66,51.77,6.4Z" fill="#323232" stroke-width="0"/><path d="m71.71,96.26c-16.07,12.53-44.88,2.82-57.41-13.24-5.56-7.13-8.09-15.65-7.77-24.03,8.4,13.48,26.19,32.8,50.2,8.46l19.57-23.92c9.09,16.69,9.68,41.61-4.59,52.74Z" opacity=".4" stroke-width="0"/><path d="m72.47,37.66c12.53,16.06,15.3,46.08-.77,58.61-16.06,12.53-44.88,2.82-57.41-13.25C1.77,66.95,4.64,43.78,20.7,31.25c16.06-12.53,39.24-9.66,51.77,6.4Z" fill="none" stroke="#050505" stroke-linecap="round" stroke-linejoin="round" stroke-width="13"/><path d="m240.8,37.66c-12.53,16.06-15.3,46.08.77,58.61,16.06,12.53,44.88,2.82,57.41-13.25,12.53-16.06,9.66-39.24-6.4-51.77-16.06-12.53-39.24-9.66-51.77,6.4Z" fill="#323232" stroke-width="0"/><path d="m241.57,96.26c16.07,12.53,44.88,2.82,57.41-13.24,5.56-7.13,8.09-15.65,7.77-24.03-8.4,13.48-26.19,32.8-50.2,8.46l-19.57-23.92c-9.09,16.69-9.68,41.61,4.59,52.74Z" opacity=".4" stroke-width="0"/><path d="m240.8,37.66c-12.53,16.06-15.3,46.08.77,58.61,16.06,12.53,44.88,2.82,57.41-13.25,12.53-16.06,9.66-39.24-6.4-51.77-16.06-12.53-39.24-9.66-51.77,6.4Z" fill="none" stroke="#050505" stroke-linecap="round" stroke-linejoin="round" stroke-width="13"/></g><path d="m284.86,131.45c-1.31-3.9-2.23-7.92-2.66-12.01-6.38-59.67-36.19-95.89-89.45-108.67-10.39-2.49-20.99-3.89-31.61-4.2-3-.09-6-.09-9,0-10.62.3-21.22,1.71-31.61,4.2C67.26,23.54,37.45,59.76,31.07,119.43c-.44,4.09-1.35,8.11-2.66,12.01-4.34,12.86-6.43,25.43-6.38,37.2,0,3.52.21,6.96.6,10.31,3.04,26.27,21.07,48.28,45.8,56.89,1.51.53,3.06,1.01,4.62,1.43,27.61,7.51,55.47,11.2,83.59,11.1,28.12.11,55.98-3.59,83.59-11.1,1.56-.43,3.1-.9,4.62-1.43,24.73-8.61,42.76-30.62,45.8-56.89.39-3.35.59-6.79.6-10.3.04-11.77-2.05-24.35-6.39-37.21Z" fill="#fff" stroke-width="0"/><path d="m291.25,168.66c-.01,3.51-.22,6.95-.6,10.3-3.05,26.27-21.07,48.28-45.8,56.89-1.51.53-3.06,1.01-4.62,1.43-27.61,7.51-55.47,11.2-83.59,11.1-28.12.11-55.98-3.59-83.59-11.1-1.56-.43-3.1-.9-4.62-1.43-24.73-8.61-42.76-30.62-45.8-56.89-.39-3.36-.59-6.8-.6-10.31,0-2.18.06-4.4.2-6.63.1,1.51.23,3.01.4,4.49,3.04,26.27,21.07,48.28,45.8,56.89,1.51.53,3.06,1.01,4.62,1.43,27.61,7.51,55.47,10.72,83.59,10.62,28.12.11,55.98-3.11,83.59-10.62,1.56-.43,3.1-.9,4.62-1.43,24.73-8.61,42.76-30.62,45.8-56.89.17-1.48.31-2.98.4-4.49.14,2.24.21,4.45.2,6.64Z" opacity=".3" stroke-width="0"/><path d="m284.86,131.45c-1.31-3.9-2.23-7.92-2.66-12.01-6.38-59.67-36.19-95.89-89.45-108.67-10.39-2.49-20.99-3.89-31.61-4.2-3-.09-6-.09-9,0-10.62.3-21.22,1.71-31.61,4.2C67.26,23.54,37.45,59.76,31.07,119.43c-.44,4.09-1.35,8.11-2.66,12.01-4.34,12.86-6.43,25.43-6.38,37.2,0,3.52.21,6.96.6,10.31,3.04,26.27,21.07,48.28,45.8,56.89,1.51.53,3.06,1.01,4.62,1.43,27.61,7.51,55.47,11.2,83.59,11.1,28.12.11,55.98-3.59,83.59-11.1,1.56-.43,3.1-.9,4.62-1.43,24.73-8.61,42.76-30.62,45.8-56.89.39-3.35.59-6.79.6-10.3.04-11.77-2.05-24.35-6.39-37.21Z" fill="none" stroke="#050505" stroke-linecap="round" stroke-linejoin="round" stroke-width="13"/><g id="j"><g id="k"><g id="l"><path d="m139.27,157.98c11.69-3.1,23.38-3.25,35.07-.45,5.32,1.27,7.68,5.84,4.69,9.21-5.43,6.13-13.05,10.35-22.58,12.79-10.29-2.98-17.61-7.16-21.92-12.57-2.67-3.36-.34-7.64,4.74-8.99Z" stroke-width="0"/><path d="m139.27,157.98c11.69-3.1,23.38-3.25,35.07-.45,5.32,1.27,7.68,5.84,4.69,9.21-5.43,6.13-13.05,10.35-22.58,12.79-10.29-2.98-17.61-7.16-21.92-12.57-2.67-3.36-.34-7.64,4.74-8.99Z" fill="none" stroke="#050505" stroke-linecap="round" stroke-linejoin="round" stroke-width="12"/><path d="m156.64,181.49c0,7.65,1.12,13.14,7.12,16.47,3.7,2.05,8.07,2.86,12.2,1.95,7.35-1.61,12.52-4.58,14.6-12.38" fill="none" stroke="#050505" stroke-linecap="round" stroke-linejoin="round" stroke-width="12"/><path d="m156.64,181.49c0,7.65-1.12,13.14-7.12,16.47-3.7,2.05-8.07,2.86-12.2,1.95-7.35-1.61-12.52-4.58-14.6-12.38" fill="none" stroke="#050505" stroke-linecap="round" stroke-linejoin="round" stroke-width="12"/><g opacity=".5"><path d="m134.9,164.24c.09-.79.5-1.57,1.13-2.26.63-.69,1.47-1.26,2.42-1.73.47-.23,1-.42,1.5-.58l1.45-.44c.97-.29,1.96-.53,2.96-.77,2-.47,4.05-.8,6.12-1.06,2.08-.24,4.18-.37,6.28-.41,2.1,0,4.21.07,6.29.26,2.08.21,4.15.5,6.16.92,1.01.21,2.01.44,2.99.71l1.47.41c.52.16,1.05.34,1.53.56,1.93.87,3.43,2.35,3.63,3.94-1.03-1.37-2.66-2.25-4.42-2.65-.44-.11-.88-.18-1.33-.23l-1.49-.18c-.99-.12-1.98-.22-2.96-.32-1.97-.19-3.94-.32-5.91-.42-1.97-.08-3.93-.12-5.9-.1-1.97.03-3.93.11-5.89.23-1.96.14-3.93.32-5.89.55-.98.12-1.97.24-2.95.38l-1.48.21c-.46.07-.9.14-1.33.26-1.75.43-3.37,1.33-4.37,2.71Z" fill="#fff" stroke-width="0"/></g></g></g><g id="m"><path d="m105.52,157.83c-1.17,3-2.47,5.78-3.94,8.3-8.17,14.06-28.07,16.11-38.05,3.42-.27-.34-.54-.7-.8-1.06-2.84-3.98-4.49-8.67-5.25-13.51-1.84-11.69.85-23.53,6.54-35.48,5.98-12.92,16.51-21.4,29.89-27.09,8.53-3.62,18.47-2.59,25.56,3.27,2.78,2.29,4.91,5.08,6.46,8.31,2.56,5.31,2.49,11.49.08,16.9-2.57,5.76-5.53,11.11-8.97,15.97-4.64,6.54-8.62,13.53-11.53,20.99Z" fill="#323232" stroke-width="0"/><g id="n"><ellipse cx="92.84" cy="124.46" rx="15.27" ry="17.74" stroke-width="0"/><ellipse cx="97.27" cy="120.61" rx="4.93" ry="5.82" fill="#fff" stroke-width="0"/></g><path d="m207.76,157.83c1.17,3,2.47,5.78,3.94,8.3,8.17,14.06,28.07,16.11,38.05,3.42.27-.34.54-.7.8-1.06,2.84-3.98,4.49-8.67,5.25-13.51,1.84-11.69-.85-23.53-6.54-35.48-5.98-12.92-16.51-21.4-29.89-27.09-8.53-3.62-18.47-2.59-25.56,3.27-2.78,2.29-4.91,5.08-6.46,8.31-2.56,5.31-2.49,11.49-.08,16.9,2.57,5.76,5.53,11.11,8.97,15.97,4.64,6.54,8.62,13.53,11.53,20.99Z" fill="#323232" stroke-width="0"/><g id="o"><ellipse cx="220.44" cy="124.46" rx="15.27" ry="17.74" stroke-width="0"/><ellipse cx="216.01" cy="120.61" rx="4.93" ry="5.82" fill="#fff" stroke-width="0"/></g></g></g></g><path d="m268.91,395.32c25.97,2.39,32.53-6.1,34.15-11.25l-34.24.27.09,10.98Z" fill="#323232" stroke-width="0"/><path d="m302.68,385.1c-2.17,5.16-9.47,12.45-33.77,10.22l4.74-5.75c15.73,1.45,24.33-1.09,29.04-4.47Z" fill="#323232" stroke-width="0"/><path d="m303.06,384.07h0m0,0c-1.43,4.53-6.69,11.66-25.68,11.66-2.57,0-5.39-.13-8.48-.42l-.09-10.98,34.24-.27m0-5.27s-.03,0-.04,0l-34.24.27c-2.91.02-5.25,2.4-5.23,5.31l.09,10.98c.02,2.71,2.09,4.96,4.79,5.21,3.15.29,6.17.44,8.96.44,22.26,0,28.76-9.41,30.64-15.17.2-.55.3-1.15.3-1.77,0-2.9-2.35-5.26-5.25-5.27h-.02Zm0,10.54h0,0Z" stroke-width="0"/><g id="p"><path id="q" d="m99.67,362.99h215.33c2.4,0,4.35,1.95,4.35,4.35v4.38c0,6.12-4.97,11.09-11.09,11.09H106.41c-6.12,0-11.09-4.97-11.09-11.09v-4.38c0-2.4,1.95-4.35,4.35-4.35Z" fill="#999" stroke-width="0"/><path id="r" d="m319.26,373.39c-.66,5.3-5.16,9.41-10.6,9.41H106.01c-5.44,0-9.94-4.1-10.6-9.41,1.64.99,3.56,1.55,5.61,1.55h212.63c2.05,0,3.97-.57,5.61-1.55Z" fill="gray" stroke-width="0"/><path id="s" d="m319.35,368.78v1.27H95.32v-1.27c0-2.34,1.88-4.23,4.19-4.23h215.64c2.31,0,4.19,1.89,4.19,4.23Z" fill="#ccc" stroke-width="0"/><path id="t" d="m99.67,362.99h215.33c2.4,0,4.35,1.95,4.35,4.35v4.38c0,6.12-4.97,11.09-11.09,11.09H106.41c-6.12,0-11.09-4.97-11.09-11.09v-4.38c0-2.4,1.95-4.35,4.35-4.35Z" fill="none" stroke="#000" stroke-linecap="round" stroke-linejoin="round" stroke-width="13"/><g id="u"><path d="m311.34,372.76c0,1.73-1.4,3.14-3.12,3.14s-3.12-1.41-3.12-3.14,1.4-3.14,3.12-3.14,3.12,1.41,3.12,3.14Z" opacity=".75" stroke-width="0"/><rect x="103.33" y="370.79" width="6.23" height="3.14" rx="1.22" ry="1.22" opacity=".8" stroke-width="0"/></g></g><g id="v"><path id="w" d="m319.09,240.75l-8.21,110.3c-.79,10.63-10,18.86-21.1,18.86H124.89c-11.1,0-20.31-8.23-21.1-18.86l-8.21-110.3c-.59-7.97,5.98-14.75,14.31-14.75h194.9c8.32,0,14.9,6.78,14.31,14.75Z" fill="#999" stroke-width="0"/><path id="x" d="m314.11,307.71l-3.23,43.34c-.79,10.62-10,18.86-21.1,18.86H124.89c-11.1,0-20.31-8.24-21.1-18.86l-1.54-20.63c50.12,3.38,148.61,5.48,211.85-22.71Z" fill="gray" stroke-width="0"/><path id="y" d="m319.09,240.75l-8.21,110.3c-.34,4.54-2.22,8.65-5.12,11.86l2.37-122.02c.05-2.61-2.14-4.75-4.86-4.75H111.16c-2.72,0-4.91,2.14-4.86,4.75l2.37,121.75c-2.77-3.17-4.56-7.17-4.88-11.59l-8.21-110.3c-.59-7.97,5.98-14.75,14.3-14.75h194.9c8.32,0,14.9,6.78,14.3,14.75Z" fill="#ccc" stroke-width="0"/><path id="z" d="m319.09,240.75l-8.21,110.3c-.79,10.63-10,18.86-21.1,18.86H124.89c-11.1,0-20.31-8.23-21.1-18.86l-8.21-110.3c-.59-7.97,5.98-14.75,14.31-14.75h194.9c8.32,0,14.9,6.78,14.31,14.75Z" fill="none" stroke="#000" stroke-linecap="round" stroke-linejoin="round" stroke-width="13"/><ellipse cx="207.85" cy="298.44" rx="19.68" ry="20.24" fill="#f2f2f2" stroke-width="0"/><path id="aa" d="m198.73,300.68c.62.63.91,1.53.76,2.41l-.92,5.49c-.3,1.8,1.54,3.18,3.11,2.32l4.8-2.59c.77-.42,1.69-.42,2.47,0l4.8,2.59c1.57.85,3.41-.52,3.11-2.32l-.92-5.49c-.15-.88.14-1.79.76-2.41l3.88-3.89c1.27-1.28.57-3.5-1.19-3.76l-5.37-.8c-.86-.13-1.61-.68-1.99-1.49l-2.4-5c-.79-1.64-3.06-1.64-3.85,0l-2.4,5c-.39.81-1.13,1.36-1.99,1.49l-5.37.8c-1.76.26-2.46,2.49-1.19,3.76l3.88,3.89Z" fill="gray" stroke-width="0"/></g><path d="m289.14,394.63c2.66-21.9-6.24-35.36-33.99-35.05-28.04.96-37.03,14.25-36.13,33.97-.53,19.34,69.56,20.58,70.11,1.08Z" fill="#323232" stroke-width="0"/><path d="m289.15,394.64c-.55,19.5-70.64,18.26-70.11-1.08-.18-3.92.03-7.58.7-10.94,7.18,15.74,67.02,15.92,69.34-1.53.68,4.04.67,8.57.07,13.55Z" fill="#323232" stroke-width="0"/><path d="m289.14,394.63c2.66-21.9-6.24-35.36-33.99-35.05-28.04.96-37.03,14.25-36.13,33.97-.53,19.34,69.56,20.58,70.11,1.08Z" fill="none" stroke="#000" stroke-linecap="round" stroke-linejoin="round" stroke-width="13"/></g></svg>