<?xml version="1.0" encoding="UTF-8"?><svg id="a" xmlns="http://www.w3.org/2000/svg" width="2000" height="2000" viewBox="0 0 2000 2000"><g id="b"><g id="c"><g id="d"><path d="m797.39,1322.49c1.25,2.03,2.3,3.37,4.26,5.4,27.07,27.97,73.5,15.7,82.33-21.72.01-.03.01-.07.02-.1,1.37-5.82,2.18-11.74,2.42-17.66,1.28-31.07,8.11-57.54,18.28-80.35-.54,56.44,3.66,114.86,11.84,174.91h148.76c-.03-3.91-.08-7.81-.16-11.68,28.57,8.26,57.15,8.26,85.72,0-.08,3.88-.13,7.78-.16,11.68h148.76c8.17-60.06,12.38-118.47,11.84-174.91,10.17,22.81,17,49.28,18.28,80.35.24,5.92,1.05,11.84,2.42,17.66.01.03.01.07.02.1,8.83,37.42,55.26,49.69,82.33,21.72,1.96-2.03,3.01-3.37,4.26-5.4,4.23-6.83,8.78-18.96,10.27-26.82,10.44-55.26,7.06-107-19.37-162.9-13.03-27.56-30.53-52.74-51.12-75.21-61.12-66.67-109.32-80-150.77-88.67h-199.24c-41.45,8.67-89.65,22-150.77,88.67-20.59,22.47-38.09,47.65-51.12,75.21-26.43,55.9-29.81,107.64-19.37,162.9,1.49,7.86,6.04,19.99,10.27,26.82Z" fill="#323232" stroke-width="0"/><path d="m1312.2,1208.06c-8.44-18.94-19.18-35.35-30.95-49.79-115.54-26.53-230.74-26.69-345.59,0-11.77,14.44-22.51,30.85-30.95,49.79-.34,35.85,1.22,72.48,4.5,109.84,7.04,27.91,51.37,26.38,92.48,21.61,21.15,15.11,42.31,25.72,63.46,31.8v-.02c5.36,1.55,10.71,2.81,16.07,3.78.89.17,1.79.32,2.68.46.79.13,1.58.25,2.37.36.12.03.25.04.38.06.87.12,1.74.24,2.61.35.82.11,1.65.21,2.48.3.24.02.49.05.74.07,1.56.17,3.12.31,4.68.42.05,0,.1.01.15.01.5.04,1,.07,1.5.1.65.05,1.3.08,1.95.11.31,0,.63.03.95.04.87.04,1.74.07,2.62.09.11,0,.23.01.36.01.99.03,1.98.03,2.97.04h0s.35,0,.35,0h1.24c.99,0,1.99-.01,2.97-.04.13,0,.25-.01.36-.01.88-.02,1.75-.05,2.62-.09.32-.01.64-.03.95-.04.65-.03,1.3-.06,1.95-.11.5-.03,1-.06,1.5-.1.05,0,.1-.01.15-.01,1.56-.11,3.12-.25,4.68-.42.25-.02.5-.05.74-.07.83-.09,1.66-.19,2.48-.3.87-.11,1.74-.23,2.61-.35.13-.02.26-.03.38-.06.79-.11,1.58-.23,2.37-.36.89-.14,1.79-.29,2.68-.46,5.36-.97,10.71-2.23,16.07-3.78v.02c21.15-6.08,42.31-16.69,63.46-31.8,41.11,4.77,85.44,6.3,92.48-21.61,3.28-37.36,4.84-73.99,4.5-109.84Z" fill="#fff" stroke-width="0"/><path d="m1306.47,1321.61c-1.12,12.37-2.43,24.82-3.93,37.34-28.94-13.68-64.55-14.13-102.92-9.12,5.2-3.16,10.4-6.6,15.59-10.32,39.2,4.55,81.32,6.15,91.26-17.9Z" fill="#fff" stroke-width="0"/><path d="m909.53,1321.61c1.12,12.37,2.43,24.82,3.93,37.34,28.94-13.68,64.55-14.13,102.92-9.12-5.2-3.16-10.4-6.6-15.59-10.32-39.2,4.55-81.32,6.15-91.26-17.9Z" fill="#fff" stroke-width="0"/><g id="e"><path d="m1295.51,1002.98c-125,62.69-250.02,62.69-375.02,0,33-21.32,61.79-28.63,87.89-34.09h199.24c26.1,5.46,54.89,12.77,87.89,34.09Z" opacity=".4" stroke-width="0"/><path d="m1214.4,1332.35c-78.54,24.67-124.72,23.99-213.47-.42-1.08-.3-1.81,1.12-.92,1.8,70.26,53.36,142,54.65,215.32.42.92-.68.16-2.14-.93-1.79Z" opacity=".3" stroke-width="0"/><path d="m1188.73,1382.97c13.13-12.16,22.64-27.07,31.38-43.58-48.05,28.14-70.47,31.65-70.47,31.65l.36,11.93h38.73Z" opacity=".4" stroke-width="0"/><path d="m1027.27,1382.97h38.73l.36-11.93s-22.42-3.52-70.47-31.65c8.75,16.52,18.26,31.42,31.38,43.58Z" opacity=".4" stroke-width="0"/><path d="m1296,1364.27c7-84-.5-165.5-23.5-206.5,16.22,13.33,30.11,31.39,41,55.5,3.27.33-14.23,151.33-17.5,151Z" opacity=".3" stroke-width="0"/><path d="m920,1364.27c-7-84,.5-165.5,23.5-206.5-16.22,13.33-30.11,31.39-41,55.5-3.27.33,14.23,151.33,17.5,151Z" opacity=".3" stroke-width="0"/><path d="m1430.83,1284.34c-.58,3.76-1.24,7.54-1.95,11.33-1.49,7.86-6.04,19.99-10.27,26.82-1.25,2.03-2.3,3.37-4.26,5.4-27.07,27.97-73.5,15.7-82.33-21.72-.01-.03-.01-.07-.02-.1-1.37-5.82-2.18-11.74-2.42-17.66-.39-9.47-1.3-18.51-2.66-27.15,14.84,28.39,33.03,50.07,59.08,52.01,19.83,1.17,33.79-10.63,44.83-28.93Z" opacity=".4" stroke-width="0"/><path d="m785.17,1284.34c.58,3.76,1.24,7.54,1.95,11.33,1.49,7.86,6.04,19.99,10.27,26.82,1.25,2.03,2.3,3.37,4.26,5.4,27.07,27.97,73.5,15.7,82.33-21.72.01-.03.01-.07.02-.1,1.37-5.82,2.18-11.74,2.42-17.66.39-9.47,1.3-18.51,2.66-27.15-14.84,28.39-33.03,50.07-59.08,52.01-19.83,1.17-33.79-10.63-44.83-28.93Z" opacity=".4" stroke-width="0"/></g><g id="f"><path d="m797.39,1322.49c1.25,2.03,2.3,3.37,4.26,5.4,27.07,27.97,73.5,15.7,82.33-21.72.01-.03.01-.07.02-.1,1.37-5.82,2.18-11.74,2.42-17.66,1.28-31.07,8.11-57.54,18.28-80.35-.54,56.44,3.66,114.86,11.84,174.91h148.76c-.03-3.91-.08-7.81-.16-11.68,28.57,8.26,57.15,8.26,85.72,0-.08,3.88-.13,7.78-.16,11.68h148.76c8.17-60.06,12.38-118.47,11.84-174.91,10.17,22.81,17,49.28,18.28,80.35.24,5.92,1.05,11.84,2.42,17.66.01.03.01.07.02.1,8.83,37.42,55.26,49.69,82.33,21.72,1.96-2.03,3.01-3.37,4.26-5.4,4.23-6.83,8.78-18.96,10.27-26.82,10.44-55.26,7.06-107-19.37-162.9-13.03-27.56-30.53-52.74-51.12-75.21-61.12-66.67-109.32-80-150.77-88.67h-199.24c-41.45,8.67-89.65,22-150.77,88.67-20.59,22.47-38.09,47.65-51.12,75.21-26.43,55.9-29.81,107.64-19.37,162.9,1.49,7.86,6.04,19.99,10.27,26.82Z" fill="none" stroke="#000" stroke-linecap="round" stroke-linejoin="round" stroke-width="13"/><path d="m1278.34,1155.84c26.88,32.14,48.84,74.24,51.24,132.57.24,5.93,1.05,11.84,2.42,17.66,0,.03.02.07.02.1,8.83,37.42,55.26,49.69,82.32,21.72,1.96-2.03,3.01-3.37,4.27-5.39,4.23-6.83,8.77-18.96,10.26-26.83,10.45-55.26,7.07-106.99-19.36-162.9-13.03-27.56-30.53-52.74-51.12-75.21-61.12-66.67-109.31-80-150.76-88.67" fill="none" stroke="#000" stroke-linecap="round" stroke-linejoin="round" stroke-width="13"/><path d="m937.66,1155.84c-26.88,32.14-48.84,74.24-51.24,132.57-.24,5.93-1.05,11.84-2.42,17.66,0,.03-.02.07-.02.1-8.83,37.42-55.26,49.69-82.32,21.72-1.96-2.03-3.01-3.37-4.27-5.39-4.23-6.83-8.77-18.96-10.26-26.83-10.45-55.26-7.07-106.99,19.36-162.9,13.03-27.56,30.53-52.74,51.12-75.21,61.12-66.67,109.31-80,150.76-88.67" fill="none" stroke="#000" stroke-linecap="round" stroke-linejoin="round" stroke-width="13"/><path d="m999.08,1337.63c72.61,53.15,145.22,53.15,217.83,0" fill="none" stroke="#000" stroke-linecap="round" stroke-linejoin="round" stroke-width="13"/><path d="m1355.95,1333.66c4.88-12.56,8.56-23.95,7.43-41.34" fill="none" stroke="#000" stroke-linecap="round" stroke-linejoin="round" stroke-width="10"/><path d="m1385.81,1339.68c7.49-14.35,10.33-27.68,9.87-41.6" fill="none" stroke="#000" stroke-linecap="round" stroke-linejoin="round" stroke-width="10"/><path d="m860.05,1333.66c-4.88-12.56-8.56-23.95-7.43-41.34" fill="none" stroke="#000" stroke-linecap="round" stroke-linejoin="round" stroke-width="10"/><path d="m830.19,1339.68c-7.49-14.35-10.33-27.68-9.87-41.6" fill="none" stroke="#000" stroke-linecap="round" stroke-linejoin="round" stroke-width="10"/></g></g><g id="g"><g id="h"><path d="m932.29,579.12c26.15,33.53,31.94,96.2-1.6,122.35-33.53,26.15-93.69,5.88-119.84-27.65-26.15-33.53-20.16-81.92,13.37-108.07,33.53-26.15,81.92-20.16,108.07,13.37Z" fill="#323232" stroke-width="0"/><path d="m930.69,701.47c-33.54,26.15-93.69,5.88-119.85-27.65-11.6-14.88-16.88-32.68-16.22-50.17,17.53,28.14,54.68,68.47,104.79,17.66l40.86-49.94c18.97,34.84,20.2,86.87-9.58,110.1Z" opacity=".4" stroke-width="0"/><path d="m932.29,579.12c26.15,33.53,31.94,96.2-1.6,122.35-33.53,26.15-93.69,5.88-119.84-27.65-26.15-33.53-20.16-81.92,13.37-108.07,33.53-26.15,81.92-20.16,108.07,13.37Z" fill="none" stroke="#050505" stroke-linecap="round" stroke-linejoin="round" stroke-width="13"/><path d="m1283.71,579.12c-26.15,33.53-31.94,96.2,1.6,122.35,33.53,26.15,93.69,5.88,119.84-27.65,26.15-33.53,20.16-81.92-13.37-108.07-33.53-26.15-81.92-20.16-108.07,13.37Z" fill="#323232" stroke-width="0"/><path d="m1285.31,701.47c33.54,26.15,93.69,5.88,119.85-27.65,11.6-14.88,16.88-32.68,16.22-50.17-17.53,28.14-54.68,68.47-104.79,17.66l-40.86-49.94c-18.97,34.84-20.2,86.87,9.58,110.1Z" opacity=".4" stroke-width="0"/><path d="m1283.71,579.12c-26.15,33.53-31.94,96.2,1.6,122.35,33.53,26.15,93.69,5.88,119.84-27.65,26.15-33.53,20.16-81.92-13.37-108.07-33.53-26.15-81.92-20.16-108.07,13.37Z" fill="none" stroke="#050505" stroke-linecap="round" stroke-linejoin="round" stroke-width="13"/></g><path d="m1375.68,774.92c-2.74-8.14-4.65-16.54-5.56-25.08-13.31-124.57-75.55-200.19-186.74-226.86-21.69-5.2-43.81-8.13-65.99-8.76-6.26-.19-12.53-.19-18.79,0-22.17.63-44.29,3.56-65.98,8.76-111.2,26.67-173.44,102.29-186.75,226.86-.91,8.54-2.82,16.94-5.56,25.08-9.05,26.85-13.42,53.09-13.32,77.67.02,7.34.44,14.52,1.25,21.53,6.35,54.85,43.98,100.8,95.61,118.77,3.16,1.11,6.38,2.1,9.64,2.99,57.64,15.68,115.81,23.39,174.51,23.17,58.7.22,116.86-7.49,174.5-23.17,3.26-.89,6.48-1.88,9.64-2.99,51.63-17.97,89.26-63.92,95.62-118.77.81-7,1.23-14.18,1.26-21.51.08-24.58-4.29-50.83-13.34-77.69Z" fill="#fff" stroke-width="0"/><path d="m1389.02,852.61c-.03,7.33-.45,14.51-1.26,21.51-6.36,54.85-43.99,100.8-95.62,118.77-3.16,1.11-6.38,2.1-9.64,2.99-57.64,15.68-115.8,23.39-174.5,23.17-58.7.22-116.87-7.49-174.51-23.17-3.26-.89-6.48-1.88-9.64-2.99-51.63-17.97-89.26-63.92-95.61-118.77-.81-7.01-1.23-14.19-1.25-21.53-.02-4.56.12-9.18.41-13.85.2,3.16.48,6.29.84,9.38,6.35,54.85,43.98,100.8,95.61,118.77,3.16,1.11,6.38,2.1,9.64,2.99,57.64,15.68,115.81,22.39,174.51,22.17,58.7.22,116.86-6.49,174.5-22.17,3.26-.89,6.48-1.88,9.64-2.99,51.63-17.97,89.26-63.92,95.62-118.77.36-3.09.64-6.22.84-9.38.3,4.67.43,9.3.42,13.87Z" opacity=".3" stroke-width="0"/><path d="m1375.68,774.92c-2.74-8.14-4.65-16.54-5.56-25.08-13.31-124.57-75.55-200.19-186.74-226.86-21.69-5.2-43.81-8.13-65.99-8.76-6.26-.19-12.53-.19-18.79,0-22.17.63-44.29,3.56-65.98,8.76-111.2,26.67-173.44,102.29-186.75,226.86-.91,8.54-2.82,16.94-5.56,25.08-9.05,26.85-13.42,53.09-13.32,77.67.02,7.34.44,14.52,1.25,21.53,6.35,54.85,43.98,100.8,95.61,118.77,3.16,1.11,6.38,2.1,9.64,2.99,57.64,15.68,115.81,23.39,174.51,23.17,58.7.22,116.86-7.49,174.5-23.17,3.26-.89,6.48-1.88,9.64-2.99,51.63-17.97,89.26-63.92,95.62-118.77.81-7,1.23-14.18,1.26-21.51.08-24.58-4.29-50.83-13.34-77.69Z" fill="none" stroke="#050505" stroke-linecap="round" stroke-linejoin="round" stroke-width="13"/><g id="i"><g id="j"><g id="k"><path d="m1071.75,830.32c24.4-6.47,48.8-6.78,73.2-.93,11.11,2.66,16.03,12.2,9.8,19.24-11.34,12.8-27.24,21.6-47.15,26.71-21.47-6.21-36.77-14.94-45.76-26.25-5.57-7.01-.72-15.95,9.9-18.77Z" stroke-width="0"/><path d="m1071.75,830.32c24.4-6.47,48.8-6.78,73.2-.93,11.11,2.66,16.03,12.2,9.8,19.24-11.34,12.8-27.24,21.6-47.15,26.71-21.47-6.21-36.77-14.94-45.76-26.25-5.57-7.01-.72-15.95,9.9-18.77Z" fill="none" stroke="#050505" stroke-linecap="round" stroke-linejoin="round" stroke-width="12"/><path d="m1108,879.4c0,15.96,2.33,27.42,14.87,34.38,7.73,4.29,16.84,5.96,25.47,4.07,15.34-3.36,26.13-9.56,30.47-25.85" fill="none" stroke="#050505" stroke-linecap="round" stroke-linejoin="round" stroke-width="12"/><path d="m1108,879.4c0,15.96-2.33,27.42-14.87,34.38-7.73,4.29-16.84,5.96-25.47,4.07-15.34-3.36-26.13-9.56-30.47-25.85" fill="none" stroke="#050505" stroke-linecap="round" stroke-linejoin="round" stroke-width="12"/><g opacity=".5"><path d="m1062.62,843.38c.19-1.64,1.05-3.28,2.35-4.71,1.31-1.44,3.08-2.64,5.06-3.61.99-.49,2.08-.87,3.14-1.22l3.03-.91c2.03-.6,4.1-1.11,6.18-1.61,4.17-.97,8.46-1.67,12.78-2.21,4.33-.5,8.72-.77,13.11-.85,4.39-.02,8.78.14,13.14.55,4.34.45,8.66,1.04,12.87,1.93,2.1.45,4.19.92,6.24,1.47l3.06.85c1.09.33,2.18.7,3.19,1.17,4.03,1.82,7.15,4.91,7.58,8.23-2.16-2.86-5.56-4.71-9.23-5.53-.91-.22-1.84-.37-2.79-.49l-3.1-.37c-2.06-.25-4.13-.45-6.18-.66-4.12-.4-8.23-.67-12.33-.88-4.11-.18-8.21-.24-12.31-.21-4.1.06-8.2.22-12.3.49-4.1.3-8.2.66-12.3,1.15-2.05.25-4.11.5-6.16.79l-3.09.44c-.96.14-1.87.3-2.78.54-3.65.89-7.03,2.77-9.12,5.66Z" fill="#fff" stroke-width="0"/></g></g></g><g id="l"><path d="m1001.28,830c-2.44,6.27-5.16,12.07-8.22,17.33-17.05,29.35-58.6,33.63-79.44,7.13-.56-.72-1.12-1.46-1.66-2.22-5.94-8.31-9.36-18.11-10.95-28.21-3.84-24.4,1.78-49.13,13.65-74.07,12.49-26.97,34.46-44.68,62.4-56.56,17.8-7.57,38.56-5.41,53.36,6.82,5.8,4.79,10.24,10.61,13.5,17.34,5.35,11.08,5.19,23.98.16,35.28-5.36,12.03-11.54,23.2-18.73,33.34-9.68,13.66-18,28.24-24.06,43.81Z" fill="#323232" stroke-width="0"/><g id="m"><ellipse cx="974.8" cy="760.34" rx="31.88" ry="37.03" stroke-width="0"/><ellipse cx="984.06" cy="752.31" rx="10.29" ry="12.14" fill="#fff" stroke-width="0"/></g><path d="m1214.72,830c2.44,6.27,5.16,12.07,8.22,17.33,17.05,29.35,58.6,33.63,79.44,7.13.56-.72,1.12-1.46,1.66-2.22,5.94-8.31,9.36-18.11,10.95-28.21,3.84-24.4-1.78-49.13-13.65-74.07-12.49-26.97-34.46-44.68-62.4-56.56-17.8-7.57-38.56-5.41-53.36,6.82-5.8,4.79-10.24,10.61-13.5,17.34-5.35,11.08-5.19,23.98-.16,35.28,5.36,12.03,11.54,23.2,18.73,33.34,9.68,13.66,18,28.24,24.06,43.81Z" fill="#323232" stroke-width="0"/><g id="n"><ellipse cx="1241.2" cy="760.34" rx="31.88" ry="37.03" stroke-width="0"/><ellipse cx="1231.94" cy="752.31" rx="10.29" ry="12.14" fill="#fff" stroke-width="0"/></g></g></g></g></g><g id="o"><rect x="491.27" y="1423.3" width="1051.23" height="62.56" rx="18.87" ry="18.87" transform="translate(2033.76 2909.16) rotate(180)" fill="#e2711e" stroke-width="0"/><path d="m491.26,1442.17v24.82c0,10.42,8.46,18.87,18.88,18.87h1013.48c10.42,0,18.88-8.44,18.88-18.87v-8.81c-1151.48,17.58-855.46-7.32-1019.35-34.88h-13c-10.42,0-18.88,8.44-18.88,18.87Z" opacity=".2" stroke-width="0"/><rect id="p" x="491.27" y="1423.3" width="1051.23" height="62.56" rx="18.87" ry="18.87" transform="translate(2033.76 2909.16) rotate(180)" fill="none" stroke="#050505" stroke-linecap="round" stroke-linejoin="round" stroke-width="13"/></g><g id="q"><g id="r"><path id="s" d="m806.24,1368.99h601.62c16.87,0,30.56,13.69,30.56,30.56v11.75c0,6.62-5.37,11.99-11.99,11.99h-638.77c-6.62,0-11.99-5.37-11.99-11.99v-11.75c0-16.87,13.69-30.56,30.56-30.56Z" transform="translate(2214.09 2792.29) rotate(180)" fill="#999" stroke-width="0"/><path id="t" d="m775.94,1397.51c1.96,14.54,15.26,25.78,31.36,25.78h599.49c16.1,0,29.4-11.24,31.36-25.78-4.85,2.7-10.52,4.26-16.59,4.26h-629.02c-6.07,0-11.74-1.56-16.59-4.26Z" fill="gray" stroke-width="0"/><path id="u" d="m775.68,1384.88v3.48h662.74v-3.48c0-6.4-5.55-11.59-12.4-11.59h-637.94c-6.85,0-12.4,5.19-12.4,11.59Z" fill="#ccc" stroke-width="0"/><path id="v" d="m806.24,1368.99h601.62c16.87,0,30.56,13.69,30.56,30.56v11.75c0,6.62-5.37,11.99-11.99,11.99h-638.77c-6.62,0-11.99-5.37-11.99-11.99v-11.75c0-16.87,13.69-30.56,30.56-30.56Z" transform="translate(2214.09 2792.29) rotate(180)" fill="none" stroke="#050505" stroke-linecap="round" stroke-linejoin="round" stroke-width="13"/><g id="w"><ellipse cx="808.58" cy="1395.77" rx="9.22" ry="8.61" opacity=".75" stroke-width="0"/><rect x="1396.29" y="1390.39" width="18.44" height="8.61" rx="2.57" ry="2.57" transform="translate(2811.02 2789.39) rotate(180)" opacity=".8" stroke-width="0"/></g></g><g id="x"><path id="y" d="m792.11,1033.99l23.14,302.29c2.23,29.12,28.19,51.69,59.46,51.69h464.68c31.27,0,57.23-22.56,59.46-51.69l23.14-302.29c1.67-21.84-16.86-40.42-40.31-40.42h-549.25c-23.46,0-41.99,18.58-40.31,40.42Z" fill="#999" stroke-width="0"/><path id="z" d="m806.16,1217.5l9.09,118.78c2.22,29.11,28.19,51.69,59.46,51.69h464.66c31.28,0,57.24-22.57,59.46-51.69l4.33-56.53c-141.25,9.26-418.79,15.03-597.02-62.25Z" fill="gray" stroke-width="0"/><path id="aa" d="m792.11,1034l23.14,302.29c.94,12.45,6.25,23.7,14.44,32.5l-6.68-334.41c-.15-7.14,6.03-13.02,13.69-13.02h541.37c7.66,0,13.84,5.87,13.69,13.02l-6.67,333.66c7.81-8.69,12.84-19.66,13.76-31.76l23.14-302.29c1.67-21.85-16.86-40.43-40.31-40.43h-549.25c-23.45,0-41.98,18.58-40.31,40.43Z" fill="#ccc" stroke-width="0"/><path id="ab" d="m792.11,1033.99l23.14,302.29c2.23,29.12,28.19,51.69,59.46,51.69h464.68c31.27,0,57.23-22.56,59.46-51.69l23.14-302.29c1.67-21.84-16.86-40.42-40.31-40.42h-549.25c-23.46,0-41.99,18.58-40.31,40.42Z" fill="none" stroke="#050505" stroke-linecap="round" stroke-linejoin="round" stroke-width="13"/><circle cx="1105.59" cy="1192.09" r="55.47" fill="#f2f2f2" stroke-width="0"/><path id="ac" d="m1131.3,1198.25c-1.76,1.71-2.56,4.19-2.14,6.61l2.58,15.06c.85,4.94-4.34,8.7-8.77,6.37l-13.52-7.11c-2.18-1.14-4.77-1.14-6.95,0l-13.52,7.11c-4.43,2.33-9.62-1.43-8.77-6.37l2.58-15.06c.42-2.42-.39-4.9-2.14-6.61l-10.94-10.67c-3.59-3.5-1.61-9.59,3.35-10.31l15.12-2.2c2.43-.35,4.53-1.88,5.62-4.08l6.76-13.7c2.22-4.49,8.63-4.49,10.84,0l6.76,13.7c1.09,2.21,3.19,3.73,5.62,4.08l15.12,2.2c4.96.72,6.94,6.81,3.35,10.31l-10.94,10.67Z" fill="gray" stroke-width="0"/></g></g><g id="ad"><g id="ae"><g id="af"><path d="m606.97,1105.51c3.1,0,6.19.44,9.29,1.32.9.26,1.68.73,2.31,1.36h1.64v63.57c.48.08.95.17,1.42.26.39.07.78.14,1.16.22,1.13.23,2.25.47,3.35.74,0,0,0,0,0,0,.21.05.43.11.63.16.05.01.09.03.14.04.35.09.7.18,1.05.28.5.13.99.26,1.48.42.12.03.24.06.36.1h0s0,0,.01,0c.59.18,1.18.36,1.76.55.23.07.45.15.68.23.07.02.13.04.2.06.3.1.59.19.89.3.04.02.1.04.16.06.05.02.1.04.15.06.49.17.98.35,1.47.54.54.2,1.07.4,1.59.62.04.02.09.03.13.05,0,0,0,0,.01,0h0s0,0,0,0h0c4.63,1.87,9.04,4.17,13.19,6.84,0,0,0,0,0,0,.11.07.21.14.31.21.86.56,1.71,1.14,2.55,1.73.18.12.35.24.53.37.91.66,1.81,1.33,2.69,2.02.19.15.37.29.55.44.9.72,1.79,1.45,2.66,2.21,0,0,0,0,.01.01.88.77,1.73,1.56,2.57,2.36.16.16.33.31.49.47.82.79,1.62,1.6,2.4,2.42.12.13.23.25.35.38.74.79,1.46,1.59,2.16,2.4.09.11.19.21.28.32.74.87,1.47,1.76,2.17,2.66.14.18.28.36.42.54.71.92,1.4,1.85,2.07,2.8.03.05.07.1.1.15.64.92,1.26,1.86,1.87,2.81.11.17.22.35.33.52.43.69.86,1.39,1.27,2.1.08.14.16.27.24.41.08.14.16.29.24.44.1.18.2.36.3.53.55.99,1.09,1.98,1.59,3,.03.05.06.11.08.16.53,1.06,1.03,2.13,1.51,3.21.09.19.17.39.26.58.47,1.08.93,2.18,1.35,3.28.04.09.07.19.11.28.41,1.08.79,2.17,1.16,3.27.04.13.09.25.13.38.37,1.14.71,2.3,1.03,3.47.05.17.09.34.14.51.32,1.19.62,2.38.88,3.59,1.2-.11,2.41-.22,3.61-.34.38-.04.76-.07,1.13-.11h0c2.64,0,4.78,2.14,4.78,4.78v18.32c0,2.65-2.15,4.78-4.78,4.78-.87.09-1.73.16-2.6.24-.23.02-.46.04-.68.06,0,0,0,0,0,0-.32.03-.63.06-.95.09h.05c-.66,9.51-1.38,18.83-2.14,27.94-1.02,12.15-2.14,23.94-3.35,35.35-2.72,25.65-5.93,49.34-9.62,70.73-1.24,7.17-5.21,13.41-10.81,17.53-1.12.83-2.31,1.57-3.55,2.21-2.49,1.29-5.2,2.21-8.08,2.68-14.09,2.32-28.05,3.48-41.87,3.48-4.84,0-9.67-.14-14.48-.43-.19-.01-.39-.02-.58-.04-8.35-.52-16.65-1.46-24.91-2.84-2.15-.36-4.21-.97-6.16-1.8-.88-.38-1.73-.82-2.57-1.28-2.51-1.4-4.77-3.19-6.71-5.29-3.55-3.83-6.03-8.67-6.96-14.06-.06-.37-.12-.75-.19-1.12-.34-2-.68-4-1.02-6.04-.05-.28-.09-.56-.13-.83-.34-2.11-.69-4.23-1.02-6.38,0,0,0,0,0,0-.4-2.57-.8-5.17-1.18-7.81-.37-2.55-.74-5.12-1.11-7.72-1.09-7.8-2.12-15.84-3.1-24.1-.33-2.76-.65-5.54-.96-8.34-.6-5.32-1.17-10.74-1.73-16.23-.32-3.2-.64-6.42-.95-9.67-.56-5.9-1.09-11.89-1.61-17.98-.66-7.88-1.28-15.92-1.87-24.09h0c-.1-1.29-.19-2.59-.28-3.89h.11c-1.43-.14-2.87-.26-4.31-.4-1.32,0-2.51-.53-3.38-1.4-.87-.87-1.4-2.06-1.4-3.38v-18.33c0-1.32.54-2.52,1.4-3.38.86-.87,2.06-1.4,3.38-1.4h0s0,0,0,0c.4.04.79.07,1.19.11,1.19.11,2.38.22,3.56.33,1.57-7.21,4.12-14.05,7.49-20.38.04-.07.07-.14.11-.21.19-.36.39-.71.59-1.06.2-.35.39-.7.59-1.05.04-.07.08-.13.12-.2,8.84-15.24,22.59-27.28,39.09-33.96h0s0,0,0,0c.58-.24,1.16-.46,1.75-.68.53-.21,1.07-.4,1.6-.59.06-.02.11-.04.17-.06.29-.1.57-.19.85-.29,0,0,.01,0,.02,0,.3-.1.6-.21.9-.3.06-.02.13-.04.19-.06.06-.02.13-.04.19-.06.44-.14.89-.29,1.35-.42.01,0,.02,0,.03,0,.05-.02.11-.03.16-.05.29-.09.59-.17.89-.25.11-.03.21-.07.32-.1.21-.06.42-.12.64-.18.07-.02.15-.03.22-.05.09-.02.18-.05.27-.08.19-.05.38-.09.57-.14.48-.12.96-.24,1.44-.35.22-.05.44-.11.67-.16.12-.03.23-.06.35-.09.06-.01.13-.03.19-.04.03,0,.05-.01.08-.02.44-.09.88-.19,1.33-.28.05,0,.09-.02.14-.03.21-.04.43-.08.65-.12.57-.11,1.13-.22,1.71-.31v-63.57h1.64c.63-.63,1.41-1.11,2.31-1.36,3.1-.88,6.19-1.32,9.29-1.32m0-8h0c-3.82,0-7.69.55-11.48,1.63-.94.27-1.86.64-2.72,1.11-3.96.48-7.03,3.85-7.03,7.94v57.07c-.18.04-.35.09-.53.13l-.11.03c-.18.04-.36.08-.53.13l-.23.07c-.1.02-.19.05-.29.07-.28.07-.55.15-.81.23-.09.03-.18.05-.27.08l-.22.06c-.23.06-.45.12-.67.19-.05.01-.1.03-.14.04-.03,0-.06.02-.08.02-.02,0-.03,0-.05.01-.51.15-1.01.31-1.5.47-.06.02-.11.04-.17.05-.08.02-.15.05-.22.07-.27.08-.53.17-.79.26l-.21.07s-.02,0-.03.01l-.18.06c-.25.08-.5.17-.76.26-.05.02-.1.04-.15.05l-.09.03c-.65.22-1.2.43-1.72.63-.7.26-1.3.49-1.86.72-.09.03-.17.07-.25.11-17.89,7.29-33.08,20.51-42.8,37.25-.05.09-.1.17-.14.24-.17.29-.32.57-.47.85l-.18.32-.18.32c-.16.28-.32.57-.47.86-.05.09-.09.18-.14.27l.02-.03c-2.68,5.04-4.86,10.32-6.51,15.76-2.91.3-5.61,1.58-7.71,3.68-2.41,2.41-3.74,5.62-3.74,9.04v18.33c0,3.42,1.33,6.63,3.75,9.04,1.61,1.61,3.58,2.74,5.72,3.31.55,7.51,1.11,14.74,1.68,21.48.51,6.1,1.06,12.18,1.61,18.06.31,3.27.63,6.51.95,9.72.57,5.65,1.16,11.15,1.74,16.32.32,2.82.64,5.62.97,8.39.99,8.32,2.04,16.48,3.13,24.27.37,2.62.74,5.21,1.12,7.78.38,2.56.76,5.09,1.15,7.59.01.09.02.19.04.28.34,2.17.68,4.31,1.03,6.43l.06.37.08.47c.34,2.05.68,4.08,1.02,6.09l.08.49.11.64c1.17,6.79,4.28,13.06,8.98,18.13,2.53,2.73,5.45,5.03,8.68,6.83,1.21.68,2.27,1.2,3.33,1.65,2.55,1.09,5.24,1.87,7.98,2.33,8.45,1.42,17.11,2.41,25.73,2.94h.22s.37.04.37.04c4.94.29,9.97.44,14.96.44,14.18,0,28.7-1.21,43.17-3.59,3.66-.6,7.18-1.77,10.47-3.48,1.6-.83,3.15-1.8,4.6-2.87,7.43-5.46,12.38-13.49,13.96-22.62,3.66-21.25,6.92-45.22,9.69-71.25,1.21-11.36,2.34-23.31,3.37-35.52.59-6.98,1.15-14.17,1.68-21.45,5.44-1.47,9.46-6.45,9.46-12.35v-18.32c0-6.6-5.03-12.05-11.46-12.72-.17-.56-.34-1.11-.52-1.66l-.11-.32-.03-.1c-.41-1.23-.84-2.44-1.28-3.61v-.03c-.05-.09-.08-.19-.12-.28-.45-1.17-.93-2.35-1.49-3.62-.09-.22-.19-.43-.28-.64-.58-1.29-1.12-2.45-1.66-3.53l-.1-.2c-.53-1.05-1.1-2.12-1.74-3.27l-.09-.17c-.08-.14-.15-.27-.23-.41l-.06-.11c-.07-.13-.14-.26-.22-.39-.07-.11-.14-.24-.21-.36l-.05-.08c-.45-.76-.92-1.54-1.4-2.31-.09-.14-.17-.27-.26-.4l-.11-.17c-.71-1.11-1.37-2.11-2.03-3.05-.05-.07-.09-.14-.14-.21-.68-.97-1.42-1.98-2.27-3.08-.15-.19-.3-.39-.46-.59-.82-1.05-1.6-2.01-2.39-2.93-.08-.09-.16-.18-.24-.27l-.07-.08c-.76-.88-1.56-1.77-2.38-2.64l-.11-.11c-.09-.1-.18-.2-.28-.3-.83-.88-1.72-1.77-2.64-2.67-.15-.14-.29-.28-.44-.42l-.1-.09c-1.03-.98-1.96-1.83-2.83-2.59-.01-.01-.03-.03-.04-.04-.86-.75-1.81-1.53-2.89-2.4l-.11-.09c-.16-.13-.33-.26-.49-.39-.99-.78-1.98-1.52-2.96-2.23-.13-.1-.27-.19-.4-.28l-.17-.12c-.93-.66-1.86-1.29-2.76-1.88-.15-.1-.27-.19-.4-.27-.09-.06-.17-.11-.26-.16-4.52-2.89-9.31-5.36-14.25-7.36-.07-.03-.14-.06-.22-.08-.55-.23-1.12-.45-1.7-.66-.57-.22-1.11-.42-1.55-.57-.05-.02-.1-.04-.14-.05-.04-.01-.07-.03-.11-.04-.02,0-.04-.01-.05-.02-.3-.11-.6-.21-.91-.31l-.2-.07-.21-.07-.18-.06c-.17-.06-.35-.12-.53-.18-.67-.23-1.3-.42-1.91-.6-.01,0-.03,0-.04-.01-.04-.01-.08-.02-.12-.03-.12-.03-.23-.07-.35-.1-.49-.15-1.02-.3-1.62-.46-.29-.08-.58-.16-.87-.23l-.19-.05c-.08-.02-.15-.04-.23-.06-.03,0-.07-.02-.1-.03l-.1-.03c-.12-.03-.24-.06-.36-.09v-57.06c0-4.09-3.07-7.47-7.03-7.94-.86-.47-1.77-.85-2.72-1.11-3.79-1.08-7.65-1.63-11.48-1.63h0Z" stroke-width="0"/></g></g><g id="ag"><path id="ah" d="m620.2,1116.06v232.87c0,2.78-1.97,5.15-4.7,5.71-5.76,1.2-11.45,1.21-17.09.03-2.72-.57-4.68-2.94-4.68-5.71v-232.9h26.46Z" fill="#fdd800" stroke-width="0"/><path id="ai" d="m620.2,1116.06v232.87c0,2.78-1.97,5.15-4.7,5.71-5.76,1.2-11.45,1.21-17.09.03-2.72-.57-4.68-2.94-4.68-5.71v-232.9" fill="none" stroke="#000" stroke-linecap="round" stroke-linejoin="round" stroke-width="8"/></g><path d="m637.65,1178.35c0,4.64-13.73,8.4-30.68,8.4s-30.68-3.76-30.68-8.4c0-.65.26-1.28.77-1.89h0c9.23-3.74,19.33-5.8,29.9-5.8s20.66,2.05,29.9,5.8h0c.51.61.77,1.24.77,1.89Z" fill="#fff" opacity=".25" stroke-width="0"/><g id="aj"><path d="m666.02,1320.17c-2.79,26.71-6.06,51-9.78,72.6-.96,5.54-5.24,9.86-10.67,10.75-13.28,2.18-26.59,3.29-39.56,3.29s-25.26-1.05-37.59-3.12c-5.43-.9-9.71-5.22-10.66-10.75-3.84-22.22-7.2-47.28-10.03-74.91,16.06-2.98,33.89-2.15,55.03,5.18,20.4,7.22,41.68,5.36,63.28-3.04Z" fill="#eaa549" stroke-width="0"/><path d="m666.02,1320.17c-2.79,26.71-6.06,51-9.78,72.6-.96,5.54-5.24,9.86-10.67,10.75-13.28,2.18-26.59,3.29-39.56,3.29s-25.26-1.05-37.59-3.12c-5.43-.9-9.71-5.22-10.66-10.75-3.84-22.22-7.2-47.28-10.03-74.91,16.06-2.98,33.89-2.15,55.03,5.18,20.4,7.22,41.68,5.36,63.28-3.04Z" fill="none" stroke="#000" stroke-linecap="round" stroke-linejoin="round" stroke-width="8"/><g id="ak"><path d="m620.2,1327.21v21.72c0,2.78-1.97,5.15-4.7,5.71-5.76,1.2-11.45,1.21-17.09.03-2.72-.57-4.68-2.94-4.68-5.71v-28.54c2.93.8,5.93,1.72,9,2.79,5.76,2.04,11.59,3.35,17.47,4Z" fill="#fdd800" stroke-width="0"/><path d="m620.2,1327.21v21.72c0,2.78-1.97,5.15-4.7,5.71-5.76,1.2-11.45,1.21-17.09.03-2.72-.57-4.68-2.94-4.68-5.71v-28.54c2.93.8,5.93,1.72,9,2.79,5.76,2.04,11.59,3.35,17.47,4Z" fill="#eaa549" opacity=".5" stroke-width="0"/><path d="m620.2,1327.21v21.72c0,2.78-1.97,5.15-4.7,5.71-5.76,1.2-11.45,1.21-17.09.03-2.72-.57-4.68-2.94-4.68-5.71v-28.54c2.93.8,5.93,1.72,9,2.79,5.76,2.04,11.59,3.35,17.47,4Z" fill="none" stroke="#000" stroke-linecap="round" stroke-linejoin="round" stroke-width="8"/></g></g><path id="al" d="m694.41,1237.67v18.32c0,2.65-2.15,4.78-4.78,4.78-1.44.14-2.87.26-4.31.4h.12c-3.53,50.72-8.55,95.98-15.11,134.02-1.98,11.48-10.95,20.55-22.44,22.43-27.79,4.57-55.07,4.66-81.84.17-11.47-1.92-20.42-10.96-22.4-22.42-6.58-38.08-11.61-83.41-15.14-134.2h.11c-1.43-.14-2.87-.26-4.31-.4-2.64,0-4.78-2.14-4.78-4.78v-18.32c0-2.65,2.14-4.78,4.78-4.78,1.59.16,3.18.29,4.76.44,5.64-25.91,23.88-47.11,47.99-56.86h0s.01,0,.01,0c1.13-.46,2.27-.89,3.42-1.29.03-.01.06-.02.09-.04.29-.1.57-.19.85-.29.44-.14.87-.29,1.3-.43.44-.14.89-.29,1.35-.42.84-.25,1.68-.48,2.53-.71.94-.25,1.9-.49,2.85-.69.14-.04.29-.06.44-.1.44-.09.88-.19,1.33-.28.03,0,.06,0,.09-.01,2.01-.4,4.05-.73,6.12-.97h0c.29-.04.59-.07.89-.1.79-.09,1.59-.16,2.4-.22.11,0,.21-.02.31-.03.16,0,.31-.02.47-.03.11,0,.23-.02.35-.02h.02c.44-.03.87-.06,1.31-.08h.06c.4-.02.8-.04,1.21-.04h.01c.22,0,.45-.01.68-.02h.01c.59-.01,1.19-.02,1.79-.02s1.19,0,1.79.02h.01c.24,0,.47.01.71.02.41,0,.8.02,1.19.04h.05c.62.03,1.24.07,1.85.11.1,0,.21,0,.31.01.09,0,.16.01.24.02,3.34.26,6.62.72,9.83,1.37.13.02.26.05.39.08.89.19,1.78.39,2.66.6.04,0,.09.01.14.03.21.05.43.11.64.16.95.24,1.89.5,2.82.78.07.01.15.04.22.06.37.11.74.23,1.11.35.52.16,1.04.33,1.54.5.3.1.59.19.89.3.04.02.1.04.16.06,1.12.4,2.24.82,3.34,1.27,0,0,0,0,.01,0h0c24.1,9.76,42.36,30.96,48,56.87,1.58-.15,3.16-.29,4.75-.44,2.64,0,4.78,2.14,4.78,4.78Z" fill="#3aaaff" opacity=".25" stroke-width="0"/><g id="am"><path d="m563.32,1360.28c.56,4.14,1.13,8.21,1.72,12.22" fill="none" opacity=".75" stroke="#fff" stroke-linecap="round" stroke-linejoin="round" stroke-width="17.88"/><path d="m555.55,1287.61c1.24,14.92,2.63,29.3,4.15,43.09" fill="none" opacity=".75" stroke="#fff" stroke-linecap="round" stroke-linejoin="round" stroke-width="17.88"/><path d="m569.62,1201.23c-3,8.74-5.69,20.88-6.31,34.63-5.39-.28-10.77-.62-16.16-1.01,4.2-12.3,11.05-23.91,20.16-34.92.96-1.16,2.81-.13,2.32,1.29Z" fill="#fff" opacity=".75" stroke-width="0"/><path d="m566.68,1236.03c-.85,9.84-1.32,19.15-1.35,27.82-7.5-.37-15-.85-22.49-1.43-.18-8.68.07-18,.65-27.84,7.73.59,15.46,1.08,23.2,1.45Z" fill="#fff" opacity=".75" stroke-width="0"/></g><g id="an"><path d="m528.51,1261.18c3.53,50.79,8.56,96.12,15.14,134.2,1.98,11.47,10.93,20.51,22.4,22.42,26.76,4.48,54.04,4.4,81.84-.17,11.49-1.88,20.46-10.95,22.44-22.43,6.56-38.04,11.58-83.3,15.11-134.02" fill="none" stroke="#000" stroke-linecap="round" stroke-linejoin="round" stroke-width="9"/><path d="m689.63,1260.78c-55.1,5.47-110.21,5.47-165.31,0-2.64,0-4.78-2.14-4.78-4.78v-18.33c0-2.64,2.14-4.78,4.78-4.78,55.1,5.49,110.21,5.49,165.31,0,2.64,0,4.78,2.14,4.78,4.78v18.33c0,2.64-2.14,4.78-4.78,4.78Z" fill="none" stroke="#000" stroke-linecap="round" stroke-linejoin="round" stroke-width="9"/><path d="m529.07,1233.35c5.64-25.92,23.87-47.12,47.99-56.88h0s0,0,0,0c.58-.24,1.16-.46,1.75-.68.53-.21,1.07-.4,1.6-.59.06-.02.11-.04.17-.06.59-.21,1.17-.41,1.77-.59,1.04-.34,2.09-.66,3.15-.94.21-.06.42-.12.64-.18,1.16-.32,2.33-.61,3.51-.87.53-.12,1.06-.23,1.59-.34.85-.17,1.7-.33,2.56-.47.46-.09.94-.16,1.42-.22.74-.11,1.48-.21,2.23-.3.36-.05.74-.09,1.11-.12.38-.04.75-.08,1.13-.11.27-.04.54-.06.82-.07.19-.02.36-.04.55-.05.16,0,.31-.02.47-.03.11,0,.23-.02.35-.02.01,0,.03,0,.04,0,.44-.04.9-.06,1.34-.08.4-.02.8-.04,1.21-.04.24-.01.47-.02.71-.02.59-.01,1.19-.02,1.79-.02s1.19,0,1.79.02c.24,0,.47,0,.71.02.41,0,.81.02,1.21.04.44.01.9.04,1.34.08.29,0,.58.03.87.05.19.01.36.03.55.05.69.05,1.37.11,2.04.19.34.03.68.06,1.02.11.11,0,.21.02.31.04.6.07,1.2.15,1.8.24.04,0,.08,0,.12.02.44.06.88.13,1.31.21,2.07.33,4.11.75,6.12,1.24.62.15,1.22.31,1.83.48.5.13.99.26,1.48.42.12.03.24.06.36.1.59.18,1.19.36,1.77.56.59.19,1.18.39,1.77.59.05.02.11.04.17.06.54.19,1.07.38,1.6.59.59.21,1.17.44,1.74.68h0c24.11,9.76,42.36,30.96,48,56.88" fill="none" stroke="#000" stroke-linecap="round" stroke-linejoin="round" stroke-width="9"/><path d="m637.65,1178.35c0,4.64-13.73,8.4-30.68,8.4s-30.68-3.76-30.68-8.4c0-.65.26-1.28.77-1.89h0c9.23-3.74,19.33-5.8,29.9-5.8s20.66,2.05,29.9,5.8h0c.51.61.77,1.24.77,1.89Z" fill="none" stroke="#000" stroke-linecap="round" stroke-linejoin="round" stroke-width="9"/></g><g id="ao"><path d="m685.44,1261.18c-3.53,50.72-8.55,95.98-15.11,134.02-1.98,11.48-10.95,20.55-22.44,22.43-27.79,4.57-55.07,4.66-81.84.17-11.47-1.92-20.42-10.96-22.4-22.42-.81-4.68-1.59-9.48-2.36-14.37,25.16,7.91,50.75,8.73,76.95-.51,15.49-5.46,28.15-16.97,34.65-32.04,8.13-18.84,16.51-42.96,17.31-72.66-46.13,3.29-95.04-1.77-138.76-10.73h-2.65c-.1-1.29-.19-2.59-.28-3.89,52.32,4.94,104.62,4.94,156.94,0Z" opacity=".3" stroke-width="0"/><path d="m684.88,1233.35c-5.58.53-11.16.99-16.74,1.4-3.83-20.26-10.84-37.27-18.07-51.45,17.47,11.24,30.26,29.1,34.82,50.05Z" opacity=".3" stroke-width="0"/><path d="m686.34,1261.1c-5.95.57-11.89,1.07-17.85,1.52.36-8.28-.23-17.64-1.5-27.78,6.2-.45,12.41-.97,18.61-1.55.94,10.14,1.27,19.51.74,27.82Z" opacity=".3" stroke-width="0"/></g><g id="ap"><path d="m620.2,1108.19v77.74c-4.01.53-8.5.82-13.23.82s-9.22-.29-13.23-.82v-77.74h26.46Z" fill="#fdd800" stroke-width="0"/><path d="m620.2,1112.16v73.78c-4.01.53-8.5.82-13.23.82s-9.22-.29-13.23-.82v-73.78c0-2.45,1.59-4.65,3.94-5.33,6.19-1.76,12.38-1.76,18.57,0,2.36.67,3.94,2.88,3.94,5.32Z" fill="none" stroke="#000" stroke-linecap="round" stroke-linejoin="round" stroke-width="8"/></g></g><g id="aq"><path id="ar" d="m563.11,619.84c58.33,0,105.61,39.45,105.61,88.12,0,22.32-9.95,42.7-26.35,58.23,2.56,6.58,9.2,20.56,22.54,30.82.17.13.07.41-.15.39-4.83-.41-32.29-3.09-51.25-11.98-14.98,6.8-32.15,10.66-50.4,10.66-58.33,0-105.61-39.45-105.61-88.12s47.28-88.12,105.61-88.12Z" fill="#fff" stroke-width="0"/><path id="as" d="m664.9,797c.18.13.07.41-.15.39-4.01-.34-23.65-2.25-41.06-7.98-3.54-1.17-6.99-2.49-10.19-3.99-14.98,6.8-32.15,10.66-50.39,10.66-26.69,0-51.07-8.26-69.66-21.89,5.6-.22,11.23.49,16.63,2.19,12.85,4.04,26.77,6.26,41.31,6.26,60.05,0,109.55-37.67,116.42-86.23.6,3.78.9,7.64.9,11.56,0,22.32-9.95,42.7-26.34,58.23.76,1.95,1.88,4.56,3.43,7.52,3.66,7.03,9.73,16.08,19.11,23.29Z" fill="#1a1d63" opacity=".25" stroke-width="0"/><path id="at" d="m563.11,619.84c58.33,0,105.61,39.45,105.61,88.12,0,22.32-9.95,42.7-26.35,58.23,2.56,6.58,9.2,20.56,22.54,30.82.17.13.07.41-.15.39-4.83-.41-32.29-3.09-51.25-11.98-14.98,6.8-32.15,10.66-50.4,10.66-58.33,0-105.61-39.45-105.61-88.12s47.28-88.12,105.61-88.12Z" fill="none" stroke="#000" stroke-linecap="round" stroke-linejoin="round" stroke-width="11"/><g id="au"><path d="m539.92,699.83l-25.3,9.27,25.28,9.19c1.96.71,3.26,2.57,3.26,4.65v.08c0,3.46-3.47,5.85-6.7,4.62l-28.89-10.98c-3.13-1.19-5.21-4.2-5.21-7.55h0c0-3.35,2.07-6.36,5.21-7.55l28.89-10.98c3.24-1.23,6.7,1.16,6.7,4.62h0c0,2.08-1.3,3.93-3.24,4.64Z" stroke-width="0"/><path d="m577.83,666.93h0c3.87,0,6.59,3.82,5.31,7.48l-24.34,69.49c-.79,2.25-2.92,3.76-5.31,3.76h0c-3.87,0-6.59-3.82-5.31-7.48l24.34-69.49c.79-2.25,2.92-3.76,5.31-3.76Z" stroke-width="0"/><path d="m628.1,709.1h0c0,3.35-2.07,6.36-5.21,7.55l-28.89,10.98c-3.24,1.23-6.7-1.16-6.7-4.62v-.08c0-2.08,1.3-3.94,3.26-4.65l25.28-9.19-25.3-9.27c-1.95-.71-3.24-2.57-3.24-4.64h0c0-3.46,3.47-5.85,6.7-4.62l28.89,10.98c3.13,1.19,5.21,4.2,5.21,7.55Z" stroke-width="0"/></g></g></g></svg>